<svg xmlns="http://www.w3.org/2000/svg" xmlns:xlink="http://www.w3.org/1999/xlink" width="90" height="60.652" viewBox="0 0 90 60.652">
  <defs>
    <clipPath id="clip-path">
      <rect id="Rectangle_2698" data-name="Rectangle 2698" width="90" height="60.652" fill="#2894d1"/>
    </clipPath>
  </defs>
  <g id="Group_16171" data-name="Group 16171" transform="translate(0 0)" opacity="0.8">
    <g id="Group_16076" data-name="Group 16076" transform="translate(0 0)" clip-path="url(#clip-path)">
      <path id="Path_11083" data-name="Path 11083" d="M89.667,34.577A79.366,79.366,0,0,0,79.1,24.351l5.942-7.321a1.464,1.464,0,0,0-2.274-1.844l-5.97,7.36a69.611,69.611,0,0,0-12.438-7.578L68.123,6.4a1.461,1.461,0,0,0-.751-1.929,1.464,1.464,0,0,0-1.929.751L61.677,13.8a45.167,45.167,0,0,0-15.214-3.409V1.463a1.462,1.462,0,1,0-2.925,0v8.929A45.167,45.167,0,0,0,28.323,13.8L24.555,5.227A1.463,1.463,0,1,0,21.877,6.4l3.76,8.564A69.7,69.7,0,0,0,13.2,22.546l-5.97-7.36a1.468,1.468,0,0,0-2.06-.214,1.465,1.465,0,0,0-.214,2.058l5.94,7.322A79.231,79.231,0,0,0,.333,34.577a1.468,1.468,0,0,0,0,1.861C1.146,37.427,20.548,60.654,45,60.654c24.485,0,43.85-23.222,44.668-24.215a1.468,1.468,0,0,0,0-1.861m-3.073.931c-3.8,4.23-21.172,22.218-41.6,22.218-20.4,0-37.788-17.988-41.593-22.218C7.211,31.278,24.6,13.29,45,13.29s37.788,17.988,41.6,22.218" transform="translate(0 0)" fill="#2894d1"/>
      <path id="Path_11084" data-name="Path 11084" d="M35.223,11.332A17.813,17.813,0,1,0,53.034,29.145,17.831,17.831,0,0,0,35.223,11.332M50.108,29.145A14.885,14.885,0,1,1,35.223,14.26,14.9,14.9,0,0,1,50.108,29.145" transform="translate(9.778 6.363)" fill="#2894d1"/>
      <path id="Path_11085" data-name="Path 11085" d="M31.556,17.861a7.617,7.617,0,1,0,7.617,7.617,7.625,7.625,0,0,0-7.617-7.617m4.692,7.617a4.692,4.692,0,1,1-4.692-4.689,4.7,4.7,0,0,1,4.692,4.689" transform="translate(13.444 10.029)" fill="#2894d1"/>
    </g>
  </g>
</svg>
