<svg id="Group_16148" data-name="Group 16148" xmlns="http://www.w3.org/2000/svg" xmlns:xlink="http://www.w3.org/1999/xlink" width="52.246" height="66.625" viewBox="0 0 52.246 66.625">
  <defs>
    <clipPath id="clip-path">
      <rect id="Rectangle_2724" data-name="Rectangle 2724" width="52.246" height="66.625" fill="none"/>
    </clipPath>
  </defs>
  <g id="Group_16147" data-name="Group 16147" clip-path="url(#clip-path)">
    <path id="Path_11097" data-name="Path 11097" d="M182.821,4.7a.678.678,0,0,1-.678-.678V.678a.678.678,0,0,1,1.356,0V4.026a.678.678,0,0,1-.678.678" transform="translate(-156.698)" fill="#384f5d"/>
    <path id="Path_11098" data-name="Path 11098" d="M294.67,57.071a.678.678,0,0,1-.479-1.157l2.367-2.367a.678.678,0,0,1,.959.959l-2.367,2.367a.676.676,0,0,1-.479.2" transform="translate(-252.922 -45.895)" fill="#384f5d"/>
    <path id="Path_11099" data-name="Path 11099" d="M54.026,297.713a.678.678,0,0,1-.479-1.157l2.367-2.367a.678.678,0,1,1,.959.959l-2.367,2.367a.676.676,0,0,1-.479.2" transform="translate(-45.895 -252.92)" fill="#384f5d"/>
    <path id="Path_11100" data-name="Path 11100" d="M344.347,183.5H341a.678.678,0,1,1,0-1.356h3.348a.678.678,0,1,1,0,1.356" transform="translate(-292.779 -156.699)" fill="#384f5d"/>
    <path id="Path_11101" data-name="Path 11101" d="M4.026,183.5H.678a.678.678,0,0,1,0-1.356H4.026a.678.678,0,1,1,0,1.356" transform="translate(0 -156.699)" fill="#384f5d"/>
    <path id="Path_11102" data-name="Path 11102" d="M297.036,297.713a.676.676,0,0,1-.479-.2l-2.367-2.367a.678.678,0,1,1,.959-.959l2.367,2.367a.678.678,0,0,1-.479,1.157" transform="translate(-252.921 -252.92)" fill="#384f5d"/>
    <path id="Path_11103" data-name="Path 11103" d="M56.393,57.071a.675.675,0,0,1-.479-.2l-2.367-2.367a.678.678,0,0,1,.959-.959l2.367,2.367a.678.678,0,0,1-.479,1.157" transform="translate(-45.895 -45.895)" fill="#384f5d"/>
    <path id="Path_11104" data-name="Path 11104" d="M243.907,18.576a.679.679,0,0,1-.625-.94l1.293-3.088a.678.678,0,0,1,1.251.523l-1.293,3.088a.678.678,0,0,1-.626.416" transform="translate(-209.251 -12.157)" fill="#384f5d"/>
    <path id="Path_11105" data-name="Path 11105" d="M329.186,115.7a.678.678,0,0,1-.257-1.306l3.1-1.269a.678.678,0,0,1,.514,1.255l-3.1,1.269a.676.676,0,0,1-.257.051" transform="translate(-282.616 -97.282)" fill="#384f5d"/>
    <path id="Path_11106" data-name="Path 11106" d="M14.277,244.741a.678.678,0,0,1-.257-1.306l3.1-1.269a.678.678,0,1,1,.514,1.255l-3.1,1.269a.678.678,0,0,1-.257.051" transform="translate(-11.699 -208.292)" fill="#384f5d"/>
    <path id="Path_11107" data-name="Path 11107" d="M331.814,245.878a.675.675,0,0,1-.262-.053l-3.088-1.293a.678.678,0,1,1,.523-1.251l3.088,1.293a.678.678,0,0,1-.262,1.3" transform="translate(-282.22 -209.25)" fill="#384f5d"/>
    <path id="Path_11108" data-name="Path 11108" d="M17.9,114.449a.676.676,0,0,1-.262-.053L14.547,113.1a.678.678,0,0,1,.523-1.251l3.088,1.293a.678.678,0,0,1-.262,1.3" transform="translate(-12.156 -96.182)" fill="#384f5d"/>
    <path id="Path_11109" data-name="Path 11109" d="M115.026,18.054a.678.678,0,0,1-.628-.421l-1.269-3.1a.678.678,0,0,1,1.255-.514l1.269,3.1a.678.678,0,0,1-.627.935" transform="translate(-97.282 -11.7)" fill="#384f5d"/>
    <path id="Path_11110" data-name="Path 11110" d="M151.781,403.5H140.329a1.17,1.17,0,1,1,0-2.34h11.452a1.17,1.17,0,0,1,0,2.34" transform="translate(-119.719 -345.116)" fill="#384f5d"/>
    <path id="Path_11111" data-name="Path 11111" d="M151.781,429.8H140.329a1.17,1.17,0,1,1,0-2.34h11.452a1.17,1.17,0,1,1,0,2.34" transform="translate(-119.719 -367.747)" fill="#384f5d"/>
    <path id="Path_11112" data-name="Path 11112" d="M165.835,454.122a.454.454,0,0,0-.446.537,3.248,3.248,0,0,0,6.384,0,.454.454,0,0,0-.446-.537Z" transform="translate(-142.278 -390.682)" fill="#384f5d"/>
    <path id="Path_11113" data-name="Path 11113" d="M85.588,106.119h-9.2a3.076,3.076,0,0,1-3.054-2.835c-.39-5.184-2.5-8.469-4.745-11.947-2.443-3.793-4.968-7.714-4.968-14.056A17.278,17.278,0,0,1,78.191,60.146a17.724,17.724,0,0,1,6.014.072A17.357,17.357,0,0,1,98.356,77.281c0,6.342-2.526,10.263-4.969,14.056-2.24,3.478-4.356,6.763-4.745,11.947a3.077,3.077,0,0,1-3.054,2.835" transform="translate(-54.738 -51.552)" fill="#384f5d"/>
    <path id="Path_11114" data-name="Path 11114" d="M101.882,150.788a1.128,1.128,0,0,1-.914-.465,15.867,15.867,0,0,1-1.449-17.045,1.13,1.13,0,0,1,1.949,1.143,13.628,13.628,0,0,0,1.326,14.571,1.13,1.13,0,0,1-.912,1.8" transform="translate(-84.042 -114.18)" fill="#fff"/>
  </g>
</svg>
