<svg id="Group_16153" data-name="Group 16153" xmlns="http://www.w3.org/2000/svg" xmlns:xlink="http://www.w3.org/1999/xlink" width="43.532" height="58.251" viewBox="0 0 43.532 58.251">
  <defs>
    <clipPath id="clip-path">
      <rect id="Rectangle_2725" data-name="Rectangle 2725" width="43.532" height="58.251" fill="#384f5d"/>
    </clipPath>
  </defs>
  <g id="Group_16151" data-name="Group 16151" clip-path="url(#clip-path)">
    <path id="Path_11115" data-name="Path 11115" d="M27.3,3.83q.21.066.418.136a4.3,4.3,0,0,0,3.129-.1,3.662,3.662,0,0,1,3.6.256A3.663,3.663,0,0,1,35.8,7.465a4.3,4.3,0,0,0,.871,3.013q.129.174.255.35a4.3,4.3,0,0,0,2.592,1.754A3.663,3.663,0,0,1,42.279,14.9a3.663,3.663,0,0,1-.871,3.5,4.3,4.3,0,0,0-1.066,2.946q0,.108,0,.217t0,.217a4.3,4.3,0,0,0,1.066,2.946,3.663,3.663,0,0,1,.871,3.5,3.663,3.663,0,0,1-2.763,2.322,4.3,4.3,0,0,0-2.592,1.754q-.125.177-.255.35a4.3,4.3,0,0,0-.871,3.013,4.5,4.5,0,0,1-.114,1.451l7.848,15.745-.046.023L41.04,51.835,34.968,49.21l-1.56,6.429-.628,2.589-.046.023L24.489,41.711a3.313,3.313,0,0,1-5.447,0L10.8,58.251l-.046-.023-.628-2.589L8.564,49.21,2.491,51.835.046,52.892,0,52.869,7.848,37.124a4.5,4.5,0,0,1-.114-1.451,4.3,4.3,0,0,0-.871-3.012q-.129-.174-.255-.35a4.3,4.3,0,0,0-2.592-1.755,3.663,3.663,0,0,1-2.763-2.322,3.663,3.663,0,0,1,.871-3.5,4.3,4.3,0,0,0,1.066-2.947c0-.072,0-.144,0-.216s0-.145,0-.217a4.3,4.3,0,0,0-1.066-2.946,3.664,3.664,0,0,1-.871-3.5,3.663,3.663,0,0,1,2.763-2.322,4.3,4.3,0,0,0,2.592-1.754q.125-.177.255-.35a4.3,4.3,0,0,0,.871-3.013A3.663,3.663,0,0,1,9.088,4.119a3.662,3.662,0,0,1,3.6-.256,4.3,4.3,0,0,0,3.13.1q.208-.07.417-.136a4.3,4.3,0,0,0,2.472-1.922A3.662,3.662,0,0,1,21.766,0a3.662,3.662,0,0,1,3.06,1.907A4.3,4.3,0,0,0,27.3,3.83M21.766,9.416A12.153,12.153,0,1,1,9.613,21.569,12.153,12.153,0,0,1,21.766,9.416" fill="#384f5d" fill-rule="evenodd"/>
    <path id="Path_11116" data-name="Path 11116" d="M151.936,142.146l1.809,5.6,5.888-.011a.557.557,0,0,1,.327,1.007l-4.77,3.452,1.83,5.6a.557.557,0,0,1-.857.623l-4.757-3.47-4.757,3.47a.557.557,0,0,1-.857-.623l1.83-5.6-4.77-3.452a.557.557,0,0,1,.327-1.007l5.888.011,1.809-5.6a.557.557,0,0,1,1.059,0" transform="translate(-129.641 -128.857)" fill="#384f5d" fill-rule="evenodd"/>
  </g>
</svg>
