<svg id="Group_16149" data-name="Group 16149" xmlns="http://www.w3.org/2000/svg" xmlns:xlink="http://www.w3.org/1999/xlink" width="52" height="52" viewBox="0 0 52 52">
  <defs>
    <clipPath id="clip-path">
      <rect id="Rectangle_2723" data-name="Rectangle 2723" width="52" height="52" fill="#384f5d"/>
    </clipPath>
  </defs>
  <g id="Group_16145" data-name="Group 16145" clip-path="url(#clip-path)">
    <path id="Path_11094" data-name="Path 11094" d="M51.762,25.881c0-1.626-3.2-2.917-3.5-4.454-.313-1.583,2.141-4,1.537-5.453-.615-1.482-4.063-1.45-4.945-2.767s.454-4.5-.671-5.626-4.3.217-5.626-.671-1.285-4.33-2.767-4.945c-1.457-.6-3.87,1.851-5.453,1.537C28.8,3.2,27.507,0,25.881,0s-2.917,3.2-4.454,3.5c-1.583.313-4-2.141-5.453-1.537-1.482.615-1.45,4.063-2.767,4.945s-4.5-.454-5.626.671.217,4.3-.671,5.626-4.33,1.285-4.945,2.767c-.6,1.457,1.851,3.87,1.537,5.453C3.2,22.964,0,24.255,0,25.881S3.2,28.8,3.5,30.334c.313,1.583-2.141,4-1.537,5.453.615,1.482,4.063,1.45,4.945,2.767s-.454,4.5.671,5.626,4.3-.217,5.626.671,1.285,4.33,2.767,4.945c1.457.6,3.87-1.851,5.453-1.537,1.537.3,2.828,3.5,4.454,3.5s2.917-3.2,4.454-3.5c1.583-.313,4,2.141,5.453,1.537,1.482-.615,1.45-4.063,2.767-4.945s4.5.454,5.626-.671-.217-4.3.671-5.626,4.33-1.285,4.945-2.767c.6-1.457-1.851-3.87-1.537-5.453.3-1.537,3.5-2.828,3.5-4.454M25.881,44.1A18.221,18.221,0,1,1,44.1,25.881,18.221,18.221,0,0,1,25.881,44.1" fill="#384f5d"/>
    <path id="Path_11095" data-name="Path 11095" d="M105.726,89.363A16.363,16.363,0,1,1,89.363,73a16.363,16.363,0,0,1,16.363,16.363" transform="translate(-63.482 -63.482)" fill="#384f5d"/>
    <path id="Path_11096" data-name="Path 11096" d="M125.772,162.265l-6.529-6.529a.828.828,0,0,1,0-1.171l1.733-1.733a.828.828,0,0,1,1.171,0l4.211,4.211,9.051-9.051a.828.828,0,0,1,1.171,0l1.733,1.733a.828.828,0,0,1,0,1.171l-11.369,11.369a.828.828,0,0,1-1.171,0" transform="translate(-103.485 -128.485)" fill="#fff"/>
  </g>
</svg>
