<svg xmlns="http://www.w3.org/2000/svg" xmlns:xlink="http://www.w3.org/1999/xlink" width="43.532" height="54.661" viewBox="0 0 43.532 54.661">
  <defs>
    <clipPath id="clip-path">
      <rect id="Rectangle_2726" data-name="Rectangle 2726" width="43.532" height="54.661" fill="#384f5d"/>
    </clipPath>
  </defs>
  <g id="Group_16154" data-name="Group 16154" transform="translate(0 -0.003)">
    <g id="Group_16154-2" data-name="Group 16154" transform="translate(0 0.003)" clip-path="url(#clip-path)">
      <path id="Path_11117" data-name="Path 11117" d="M42.934,9.354a24.187,24.187,0,0,1-4.623-1.438c-2.023-.8-4.507-1.907-7.382-3.3C27.023,2.723,23.453.82,22.1.089A.713.713,0,0,0,21.768,0h0a.713.713,0,0,0-.332.085C20.079.82,16.509,2.723,12.6,4.616c-2.876,1.393-5.359,2.5-7.382,3.3A24.186,24.186,0,0,1,.6,9.354a.709.709,0,0,0-.6.7v23.02c0,2.909,1.227,5.9,3.647,8.9a36.281,36.281,0,0,0,7.26,6.587A66.838,66.838,0,0,0,21.476,54.6a.7.7,0,0,0,.264.062h.052a.7.7,0,0,0,.263-.062,66.837,66.837,0,0,0,10.569-6.037,36.279,36.279,0,0,0,7.26-6.587c2.42-3,3.647-5.992,3.647-8.9V10.056a.709.709,0,0,0-.6-.7M36.052,38.88a28.539,28.539,0,0,1-5.711,5.182,52.493,52.493,0,0,1-8.3,4.74.678.678,0,0,1-.274.06h-.006a.678.678,0,0,1-.274-.06,52.492,52.492,0,0,1-8.3-4.74A28.538,28.538,0,0,1,7.48,38.88,11.33,11.33,0,0,1,4.6,31.832V23.1l3.03,2.465L13.295,18.6,6.261,12.879c.7-.2,1.536-.487,2.5-.868,1.582-.623,3.524-1.491,5.773-2.581,3.055-1.48,5.851-2.971,6.911-3.543a.665.665,0,0,1,.638,0C23.145,6.46,25.941,7.95,29,9.43c2.249,1.09,4.191,1.958,5.773,2.581.966.38,1.8.67,2.5.868L30.237,18.6l5.668,6.967,3.03-2.465v8.729a11.33,11.33,0,0,1-2.884,7.048" transform="translate(0 -0.004)" fill="#384f5d"/>
      <path id="Path_11118" data-name="Path 11118" d="M539.56,1326.2l2.914-2.4a1.15,1.15,0,0,0-.708-2.057,1.14,1.14,0,0,0-.7.242l-.005,0-2.96,2.441a1.15,1.15,0,0,0,1.464,1.774" transform="translate(-525.652 -1292.174)" fill="#384f5d"/>
      <path id="Path_11119" data-name="Path 11119" d="M591.517,1398.151a1.15,1.15,0,0,0-1.851-1.049l-3.744,3.047-.833.687a1.15,1.15,0,0,0,1.462,1.776l4.53-3.7a1.142,1.142,0,0,0,.436-.764" transform="translate(-571.592 -1365.611)" fill="#384f5d"/>
      <path id="Path_11120" data-name="Path 11120" d="M675.26,1503.606a1.15,1.15,0,1,0-1.415-1.813l-4.507,3.677a1.15,1.15,0,1,0,1.465,1.774l3.122-2.6Z" transform="translate(-653.957 -1467.959)" fill="#384f5d"/>
      <path id="Path_11121" data-name="Path 11121" d="M814.488,1652.628a1.143,1.143,0,0,0-.467.1l-.01,0a.225.225,0,0,0-.05.031l-1.976,1.618a1.15,1.15,0,1,0,1.465,1.773l1.746-1.47a1.149,1.149,0,0,0-.708-2.055" transform="translate(-793.413 -1615.661)" fill="#384f5d"/>
      <path id="Path_11122" data-name="Path 11122" d="M1002.011,1646.823l-1.1-1.01a.224.224,0,0,0-.342.283,1.823,1.823,0,0,1-.18,2.16.224.224,0,0,0,.025.321l1.039.857a1.15,1.15,0,0,0,1.584-1.659c-.013-.015-.017-.018-1.03-.952" transform="translate(-977.96 -1608.939)" fill="#384f5d"/>
      <path id="Path_11123" data-name="Path 11123" d="M424.294,886.372l-9.8-8.057a.224.224,0,0,0-.117-.05l-.6-.069h-.007l-3.3-.269-.039-.006a2,2,0,0,1-1.549-2.362,2.086,2.086,0,0,1,.068-.244.224.224,0,0,0-.075-.249l-1.522-1.177-.222-.178a.224.224,0,0,0-.314.034l-4.562,5.659a.224.224,0,0,0,.032.314l2.87,2.366a.331.331,0,0,1,.12.253,10.556,10.556,0,0,0,.382,1.634c.094.344.183.669.243.918a.224.224,0,0,0,.36.12l1.953-1.61a1.812,1.812,0,0,1,2.894,1.131l.015.088a.224.224,0,0,0,.283.178l.085-.024a1.81,1.81,0,0,1,2.3,1.953l-.009.078a.224.224,0,0,0,.192.248l.077.01a1.811,1.811,0,0,1,1.495,2.305.224.224,0,0,0,.066.231l4.277,3.8.006.006a1.15,1.15,0,0,0,1.464-1.775l-3.992-3.311a.331.331,0,0,1,.421-.512l3.992,3.311a1.15,1.15,0,0,0,1.463-1.775l-.832-.686-3.916-3.263a.331.331,0,0,1,.42-.512l3.916,3.263a1.15,1.15,0,0,0,1.464-1.775" transform="translate(-393.208 -854.12)" fill="#384f5d"/>
      <path id="Path_11124" data-name="Path 11124" d="M742.1,872.331a.224.224,0,0,0-.316-.033l-2.9,2.37a.346.346,0,0,1-.326.055l-3.773-1.4a.222.222,0,0,0-.077-.014l-4.542-.025c-1.185.011-1.548.565-1.644,1.028a1.335,1.335,0,0,0,1,1.57.215.215,0,0,0,.036.006l3.26.265,1.486.164h0l.014,0,.027,0,.033.009a.332.332,0,0,1,.227.351v.006l-.005.03,0,.019,0,.016-.006.016,0,.007a.224.224,0,0,0,.066.257l8.171,6.712a.224.224,0,0,0,.361-.123,24.021,24.021,0,0,0,.486-2.667.331.331,0,0,1,.12-.253l2.87-2.366a.224.224,0,0,0,.032-.313Z" transform="translate(-712.206 -852.737)" fill="#384f5d"/>
    </g>
  </g>
</svg>
