<svg xmlns="http://www.w3.org/2000/svg" xmlns:xlink="http://www.w3.org/1999/xlink" width="61.856" height="90" viewBox="0 0 61.856 90">
  <defs>
    <clipPath id="clip-path">
      <rect id="Rectangle_2699" data-name="Rectangle 2699" width="61.856" height="90" fill="#384f5d"/>
    </clipPath>
  </defs>
  <g id="Group_16079" data-name="Group 16079" transform="translate(0 0)" opacity="0.8">
    <g id="Group_16078" data-name="Group 16078" transform="translate(0 0)" clip-path="url(#clip-path)">
      <path id="Path_11086" data-name="Path 11086" d="M49.173,90h0a4.319,4.319,0,0,1-4.352-4.366,47.734,47.734,0,0,0-1.154-10.543c-1.108-4.855-3.707-11.571-7.678-15.864a6.972,6.972,0,0,0-10.119,0C21.9,63.52,19.3,70.238,18.192,75.094a47.532,47.532,0,0,0-1.154,10.542A4.32,4.32,0,0,1,12.685,90a4.225,4.225,0,0,1-4.016-2.834A64.911,64.911,0,0,1,5.016,66.8,114.038,114.038,0,0,1,6.271,48.925a63.357,63.357,0,0,0,.689-7.331c-.087-2.879-1.317-4.97-2.74-7.388C3.813,33.514,3.4,32.81,3,32.07.764,27.918.359,24.449.061,20.345c-.643-8.842,3.843-16,12-19.151A18.257,18.257,0,0,1,18.76,0c4.01,0,7.953,1.073,11.766,2.11l.4.109.4-.109C35.143,1.073,39.086,0,43.1,0a18.255,18.255,0,0,1,6.7,1.194c8.155,3.148,12.639,10.308,12,19.151-.3,4.1-.7,7.572-2.941,11.725-.4.738-.812,1.442-1.22,2.134-1.423,2.42-2.653,4.509-2.74,7.389a63.1,63.1,0,0,0,.691,7.331A114.043,114.043,0,0,1,56.84,66.8a64.842,64.842,0,0,1-3.653,20.369A4.225,4.225,0,0,1,49.173,90M30.928,54.065A9.892,9.892,0,0,1,38.181,57.2c4.372,4.724,7.2,12,8.4,17.228a50.733,50.733,0,0,1,1.229,11.207,1.321,1.321,0,0,0,1.365,1.378,1.248,1.248,0,0,0,1.215-.891,61.991,61.991,0,0,0,3.466-19.436A111.892,111.892,0,0,0,52.619,49.3a62.221,62.221,0,0,1-.711-7.79c.109-3.647,1.656-6.276,3.151-8.817.39-.661.785-1.332,1.164-2.036,1.961-3.641,2.311-6.659,2.592-10.525.541-7.461-3.231-13.5-10.092-16.146A15.347,15.347,0,0,0,43.1,2.989c-3.611,0-7.358,1.019-10.982,2.006l-1.187.323L29.741,5C26.117,4.009,22.37,2.989,18.76,2.989a15.341,15.341,0,0,0-5.626.992C6.273,6.632,2.5,12.668,3.043,20.128c.279,3.868.631,6.886,2.59,10.525.38.7.776,1.377,1.163,2.037,1.5,2.541,3.043,5.168,3.152,8.815a62.222,62.222,0,0,1-.711,7.79A111.892,111.892,0,0,0,8,66.685a62.044,62.044,0,0,0,3.466,19.436,1.248,1.248,0,0,0,1.217.891,1.323,1.323,0,0,0,1.365-1.378,50.645,50.645,0,0,1,1.227-11.207C16.471,69.2,19.3,61.922,23.675,57.2a9.892,9.892,0,0,1,7.253-3.134" transform="translate(0 0)" fill="#384f5d"/>
      <path id="Path_11087" data-name="Path 11087" d="M8.016,26.85A1.491,1.491,0,0,1,6.7,26.064a19.787,19.787,0,0,1-2.214-8.8A14.617,14.617,0,0,1,6.43,8.58a1.495,1.495,0,0,1,2.559,1.545,11.649,11.649,0,0,0-1.522,6.92,17.043,17.043,0,0,0,1.862,7.6,1.5,1.5,0,0,1-1.314,2.2" transform="translate(2.197 3.886)" fill="#384f5d"/>
      <path id="Path_11088" data-name="Path 11088" d="M8.989,9.412A1.495,1.495,0,0,1,7.945,6.848a8.391,8.391,0,0,1,4.221-2.406,1.494,1.494,0,1,1,.88,2.856,5.557,5.557,0,0,0-3.015,1.69,1.49,1.49,0,0,1-1.043.424" transform="translate(3.707 2.163)" fill="#384f5d"/>
    </g>
  </g>
</svg>
