<svg xmlns="http://www.w3.org/2000/svg" xmlns:xlink="http://www.w3.org/1999/xlink" width="90.937" height="90" viewBox="0 0 90.937 90">
  <defs>
    <clipPath id="clip-path">
      <rect id="Rectangle_2696" data-name="Rectangle 2696" width="90.937" height="90" fill="#384f5d"/>
    </clipPath>
  </defs>
  <g id="Group_16073" data-name="Group 16073" transform="translate(0 0)" opacity="0.8">
    <g id="Group_16072" data-name="Group 16072" transform="translate(0 0)" clip-path="url(#clip-path)">
      <path id="Path_11060" data-name="Path 11060" d="M64.126,40.245a17.949,17.949,0,0,0-8.207-11.138,1.852,1.852,0,0,0-.948-.263,1.834,1.834,0,0,0-.949,3.408,14.406,14.406,0,0,1,0,24.651,1.837,1.837,0,0,0,1.9,3.145,18.09,18.09,0,0,0,8.208-19.8" transform="translate(26.279 14.266)" fill="#384f5d" fill-rule="evenodd"/>
      <path id="Path_11061" data-name="Path 11061" d="M50.344,33.325a1.829,1.829,0,0,0-2.523.607,1.841,1.841,0,0,0,.605,2.526,7.037,7.037,0,0,1,.028,12.024,1.836,1.836,0,0,0-.652,2.512,1.836,1.836,0,0,0,2.515.653,10.711,10.711,0,0,0,.025-18.323" transform="translate(23.519 16.348)" fill="#384f5d" fill-rule="evenodd"/>
      <path id="Path_11062" data-name="Path 11062" d="M40.517,42.2l-.006,0v.009Z" transform="translate(20.038 20.871)" fill="#384f5d" fill-rule="evenodd"/>
      <path id="Path_11063" data-name="Path 11063" d="M63.557,38.294A11.052,11.052,0,0,1,61.8,36.044a3.032,3.032,0,0,1-.181-1.714,1.824,1.824,0,0,0,.036-.348C61.658,15.244,47.687,0,30.516,0a29.166,29.166,0,0,0-16.81,5.376A33.536,33.536,0,0,0,2.442,19.227,29.321,29.321,0,0,0,4.207,46.076,36.177,36.177,0,0,0,7.8,51.05l.051.06.039.067c1.962,3.551,1.058,15.345-.614,24.8a1.835,1.835,0,0,0,1.486,2.127,1.891,1.891,0,0,0,.327.03,1.835,1.835,0,0,0,1.8-1.516c1.84-10.4,2.807-23.111-.006-27.585a1.613,1.613,0,0,0-.173-.232,32.178,32.178,0,0,1-3.363-4.626A25.623,25.623,0,0,1,5.8,20.709C10.489,10.2,19.959,3.674,30.516,3.674c15.034,0,27.356,13.5,27.459,30.206a6.574,6.574,0,0,0,.429,3.556,12.631,12.631,0,0,0,2.441,3.334,12.273,12.273,0,0,1,2.06,2.69,3,3,0,0,1-.955,3.478c-.142.079-.486.221-.813.353-2,.8-4.216,2.089-3.577,5.037a4.256,4.256,0,0,0,.731,1.4c.821,1.2,1.55,2.448,1.315,3.378q-.2.8-1.551,1.52a2.858,2.858,0,0,0-1.474,3.337c.691,2.535.563,4.663-.341,5.693a4.417,4.417,0,0,1-3.43,1.108,14.694,14.694,0,0,1-2.007-.155c-.236-.021-.469-.03-.694-.03a6.612,6.612,0,0,0-1.118.091,6.306,6.306,0,0,0-5.055,7.107c.007.07.016.132.036.242a1.838,1.838,0,0,0,3.663-.221,1.778,1.778,0,0,0-.018-.253H47.6v-.006h.019c-.012-.09-.028-.184-.046-.3a2.6,2.6,0,0,1,2.082-2.961,3.082,3.082,0,0,1,.436-.028c.109,0,.223,0,.384.018a17.63,17.63,0,0,0,2.321.164c2.746,0,4.832-.792,6.2-2.353,1.427-1.629,1.961-4.092,1.553-7.005l-.229.281h-.359V62.6l.586.468c-.046-.323-.094-.646-.163-.979l-.1-.489.411-.281a5.7,5.7,0,0,0,2.471-3.311c.587-2.329-.622-4.52-1.58-5.965l-.49-.735.807-.36c.184-.082.378-.16.593-.244a7.433,7.433,0,0,0,1.765-.9,6.641,6.641,0,0,0,2.031-7.76,14.492,14.492,0,0,0-2.737-3.751" transform="translate(0 0)" fill="#384f5d" fill-rule="evenodd"/>
      <path id="Path_11064" data-name="Path 11064" d="M35.163,35.17H30.2a15.336,15.336,0,0,0-15.32,15.32V70.767a1.837,1.837,0,0,0,3.674,0V50.49A11.661,11.661,0,0,1,30.2,38.844h4.959a1.837,1.837,0,0,0,0-3.674" transform="translate(7.361 17.395)" fill="#384f5d" fill-rule="evenodd"/>
    </g>
  </g>
</svg>
