<svg xmlns="http://www.w3.org/2000/svg" xmlns:xlink="http://www.w3.org/1999/xlink" width="68.238" height="90" viewBox="0 0 68.238 90">
  <defs>
    <clipPath id="clip-path">
      <rect id="Rectangle_2697" data-name="Rectangle 2697" width="68.238" height="90" fill="#384f5d"/>
    </clipPath>
  </defs>
  <g id="Group_16075" data-name="Group 16075" transform="translate(0 0)" opacity="0.8">
    <g id="Group_16074" data-name="Group 16074" transform="translate(0 0.001)" clip-path="url(#clip-path)">
      <path id="Path_11065" data-name="Path 11065" d="M28.021,34.1a1.275,1.275,0,0,0,.784-.268c.043-.031,4.252-3.117,11.6-1.585a1.274,1.274,0,0,0,.969-.175,1.294,1.294,0,0,0,.379-1.791,1.272,1.272,0,0,0-.814-.554c-8.645-1.807-13.5,1.91-13.7,2.067A1.289,1.289,0,0,0,27,33.605a1.284,1.284,0,0,0,1.017.5" transform="translate(12.57 13.747)" fill="#384f5d"/>
      <path id="Path_11066" data-name="Path 11066" d="M34.612,35.218c-1.285.694-2.213,1.194-4.487.088A1.289,1.289,0,1,0,29,37.627a7.931,7.931,0,0,0,3.445.916,6.807,6.807,0,0,0,3.39-1.057A4.615,4.615,0,0,1,38.7,36.7a1.272,1.272,0,0,0,.948-.273,1.294,1.294,0,0,0,.476-.873,1.287,1.287,0,0,0-1.15-1.414,6.986,6.986,0,0,0-4.365,1.082" transform="translate(13.295 16.034)" fill="#384f5d"/>
      <path id="Path_11067" data-name="Path 11067" d="M21.252,35.9a1.293,1.293,0,0,0-1.719-.594h0c-2.271,1.106-3.2.6-4.489-.091a6.952,6.952,0,0,0-4.361-1.081,1.29,1.29,0,0,0-1.153,1.41A1.271,1.271,0,0,0,10,36.42a1.286,1.286,0,0,0,.938.278,4.486,4.486,0,0,1,2.88.787,6.792,6.792,0,0,0,3.39,1.057,7.937,7.937,0,0,0,3.449-.917,1.3,1.3,0,0,0,.592-1.725" transform="translate(4.478 16.033)" fill="#384f5d"/>
      <path id="Path_11068" data-name="Path 11068" d="M9.82,32.071a1.271,1.271,0,0,0,.967.178c7.33-1.523,11.562,1.557,11.6,1.583a1.293,1.293,0,0,0,1.808-.235,1.3,1.3,0,0,0-.232-1.8c-.2-.157-5.125-3.855-13.7-2.066a1.288,1.288,0,0,0-1,1.522,1.274,1.274,0,0,0,.56.822" transform="translate(4.341 13.748)" fill="#384f5d"/>
      <path id="Path_11069" data-name="Path 11069" d="M32.192,49.994c-.685.334-1.924.072-3.232-.2-.7-.148-1.36-.281-2.035-.375a1.289,1.289,0,0,0-2.577.031c-.685.113-1.344.265-2.051.434-1.3.309-2.53.6-3.23.288a1.288,1.288,0,0,0-1.061,2.346c1.308.6,3.055.307,4.888-.128.447-.107.942-.222,1.454-.319v.707a1.263,1.263,0,0,0,.581,1.047,4.063,4.063,0,0,1-1.2-.363A1.289,1.289,0,0,0,22.5,55.727a6.6,6.6,0,0,0,1.845.6v3.087a1.289,1.289,0,0,0,2.577,0V56.325a7.143,7.143,0,0,0,1.769-.562,1.288,1.288,0,1,0-1.085-2.336,4.668,4.668,0,0,1-1.232.372,1.266,1.266,0,0,0,.548-1.025v-.751c.518.084,1.026.187,1.522.293,1.67.351,3.4.716,4.871,0a1.272,1.272,0,0,0,.654-.737,1.287,1.287,0,0,0-1.78-1.58" transform="translate(8.112 22.648)" fill="#384f5d"/>
      <path id="Path_11070" data-name="Path 11070" d="M68.238,37.906c0-6.054-.91-21.024-9.334-29.235A19.12,19.12,0,0,0,45.049,3.278H44.81A26.79,26.79,0,0,0,21.877,1.967C8.586,7.271,0,21.379,0,37.906a34.807,34.807,0,0,0,1,8.621c-.054.074-.107.151-.16.237C.118,47.912.088,49.822.751,52.44c1.117,4.424,4.012,9.944,7.438,12.145,3.658,11.575,10.219,19.66,19.5,24.026a14.473,14.473,0,0,0,12.372,0c9.281-4.368,15.843-12.453,19.505-24.03,3.423-2.205,6.315-7.726,7.43-12.147.579-2.292.625-4.045.135-5.216a39.981,39.981,0,0,0,1.1-9.314M5.113,45.8a3.946,3.946,0,0,0-1.776-.519,29.552,29.552,0,0,1-.7-5.238c.642-.049,1.507-.132,2.514-.282-.063,1.217-.128,3.326-.035,6.04m-1.864,6.01c-.576-2.28-.4-3.4-.231-3.678.041-.063.181-.275.3-.279.463,0,1.36.726,1.988,1.46a74.7,74.7,0,0,0,.969,7.542,1.277,1.277,0,0,0,.135.71c.132.684.275,1.367.429,2.045a25.075,25.075,0,0,1-3.595-7.8M58.98,56.254c-.285.156-.568.31-.853.46A1.291,1.291,0,0,0,58.4,59.1c-2.145,9.467-7.263,21.455-19.433,27.18a11.836,11.836,0,0,1-3.927,1.072V85.38a1.289,1.289,0,1,0-2.577,0v1.941a11.806,11.806,0,0,1-3.671-1.039c-12.117-5.7-17.25-17.617-19.414-27.124.247.1.5.209.745.31a1.314,1.314,0,0,0,1.678-.712,1.29,1.29,0,0,0-.71-1.678c-.778-.315-1.557-.648-2.338-.991a74.771,74.771,0,0,1-1-16.815c4.509-1.028,10.234-3.333,13.055-8.507,2.073-3.8,5.456-8.5,9.792-9.3a6.631,6.631,0,0,1,1.861-.082v.935a1.289,1.289,0,0,0,2.577,0v-.293a13.822,13.822,0,0,1,3.62,2.286,1.262,1.262,0,0,0,1.022.293c.25-.035,6.2-.775,10.237,3.483a40.518,40.518,0,0,1,3.358,4.25c1.833,2.546,3.725,5.177,6.734,7.081A73.75,73.75,0,0,1,58.98,56.254M64.5,51.805a25.111,25.111,0,0,1-3.59,7.794q.216-.957.4-1.92a1.263,1.263,0,0,0,.147-.744,75.113,75.113,0,0,0,.981-7.63c.629-.731,1.526-1.454,2-1.454a.365.365,0,0,1,.181.131l.106.157c.169.282.34,1.41-.229,3.667m.4-6.489a2.364,2.364,0,0,0-.335-.038,3.462,3.462,0,0,0-1.929.5c.071-2.077.049-3.8.007-5.025a17.443,17.443,0,0,0,2.818.856c-.123,1.226-.312,2.467-.562,3.7m.737-6.309c-5.31-1.276-7.723-4.628-10.293-8.2a42.615,42.615,0,0,0-3.564-4.493A14.769,14.769,0,0,0,41.025,21.95c-.466,0-.85.021-1.131.043-3.261-2.63-6.548-3.659-9.762-3.059-4.225.784-8.232,4.45-11.582,10.6-3.434,6.292-12.72,7.636-15.971,7.917.154-15.268,8.07-28.226,20.255-33.09A24.2,24.2,0,0,1,43.661,5.588l.26.134a1.124,1.124,0,0,0,.257.09l.226.047.1,0a16.572,16.572,0,0,1,12.6,4.659c7.938,7.739,8.555,22.922,8.555,27.391q0,.551-.018,1.1" transform="translate(0 -0.001)" fill="#384f5d"/>
      <path id="Path_11071" data-name="Path 11071" d="M23.367,31.488A1.291,1.291,0,0,0,24.656,30.2V26.88a1.289,1.289,0,0,0-2.577,0V30.2a1.289,1.289,0,0,0,1.288,1.288" transform="translate(10.382 12.033)" fill="#384f5d"/>
      <path id="Path_11072" data-name="Path 11072" d="M23.367,36a1.291,1.291,0,0,0,1.289-1.288v-3.32a1.289,1.289,0,0,0-2.577,0v3.32A1.289,1.289,0,0,0,23.367,36" transform="translate(10.382 14.156)" fill="#384f5d"/>
      <path id="Path_11073" data-name="Path 11073" d="M23.367,26.973a1.291,1.291,0,0,0,1.289-1.288v-3.32a1.289,1.289,0,0,0-2.577,0v3.32a1.289,1.289,0,0,0,1.288,1.288" transform="translate(10.382 9.91)" fill="#384f5d"/>
      <path id="Path_11074" data-name="Path 11074" d="M23.367,40.518a1.291,1.291,0,0,0,1.289-1.288V35.91a1.289,1.289,0,0,0-2.577,0v3.32a1.289,1.289,0,0,0,1.288,1.288" transform="translate(10.382 16.279)" fill="#384f5d"/>
      <path id="Path_11075" data-name="Path 11075" d="M23.367,22.458a1.291,1.291,0,0,0,1.289-1.288V17.85a1.289,1.289,0,0,0-2.577,0v3.32a1.289,1.289,0,0,0,1.288,1.288" transform="translate(10.382 7.787)" fill="#384f5d"/>
      <path id="Path_11076" data-name="Path 11076" d="M30.556,42.017h0c-1.061.16-2.139.287-3.207.375a1.286,1.286,0,0,0-.881.453,1.266,1.266,0,0,0-.3.935,1.313,1.313,0,0,0,1.378,1.181h.01c1.114-.093,2.252-.225,3.383-.4a1.287,1.287,0,0,0-.382-2.546" transform="translate(12.302 19.75)" fill="#384f5d"/>
      <path id="Path_11077" data-name="Path 11077" d="M39.757,39.54a1.273,1.273,0,0,0-.975.034c-.97.434-1.977.845-2.992,1.222a1.291,1.291,0,0,0-.763,1.654,1.3,1.3,0,0,0,1.209.842,1.264,1.264,0,0,0,.447-.081c1.042-.385,2.1-.817,3.154-1.286a1.287,1.287,0,0,0,.647-1.705,1.292,1.292,0,0,0-.726-.679" transform="translate(16.433 18.553)" fill="#384f5d"/>
      <path id="Path_11078" data-name="Path 11078" d="M34.763,41.077h-.006c-1.035.3-2.086.576-3.126.807a1.288,1.288,0,0,0,.279,2.546l.279-.031c1.1-.246,2.213-.532,3.3-.853a1.288,1.288,0,0,0-.725-2.471" transform="translate(14.398 19.29)" fill="#384f5d"/>
      <path id="Path_11079" data-name="Path 11079" d="M18.244,44.436c1.125.184,2.255.334,3.361.45l.078-.731.059.738a1.288,1.288,0,0,0,.134-2.57c-1.06-.11-2.144-.256-3.214-.429a1.258,1.258,0,0,0-.96.223,1.288,1.288,0,0,0,.543,2.319" transform="translate(8.069 19.689)" fill="#384f5d"/>
      <path id="Path_11080" data-name="Path 11080" d="M22.529,46.344a1.259,1.259,0,0,0-.248.719v3.32a1.289,1.289,0,0,0,2.577,0v-3.32a1.244,1.244,0,0,0-.163-.591c.219,0,.44.015.659.015q.463,0,.928-.007a1.29,1.29,0,0,0,1.264-1.311,1.3,1.3,0,0,0-.4-.913,1.32,1.32,0,0,0-.909-.351c-.46.007-.934-.015-1.4-.019,0-.049.028-.09.028-.14v-3.32a1.289,1.289,0,0,0-2.577,0v3.32a1.266,1.266,0,0,0,.054.269,1.231,1.231,0,0,0-.229.123,1.308,1.308,0,0,0-.453.947,1.227,1.227,0,0,0,.876,1.26" transform="translate(10.18 18.402)" fill="#384f5d"/>
      <path id="Path_11081" data-name="Path 11081" d="M13.26,40.692q-1.539-.485-3.086-1.044a1.287,1.287,0,1,0-.879,2.418q1.6.582,3.2,1.084a1.287,1.287,0,1,0,.766-2.458" transform="translate(3.971 18.605)" fill="#384f5d"/>
      <path id="Path_11082" data-name="Path 11082" d="M17.537,41.734c-1.036-.223-2.1-.481-3.18-.769a1.288,1.288,0,0,0-.65,2.493q1.656.443,3.309.8l.248.024a1.288,1.288,0,0,0,.272-2.548" transform="translate(5.995 19.242)" fill="#384f5d"/>
    </g>
  </g>
</svg>
