<svg xmlns="http://www.w3.org/2000/svg" xmlns:xlink="http://www.w3.org/1999/xlink" width="30.788" height="90" viewBox="0 0 30.788 90">
  <defs>
    <clipPath id="clip-path">
      <rect id="Rectangle_2695" data-name="Rectangle 2695" width="30.788" height="90" fill="#384f5d"/>
    </clipPath>
  </defs>
  <g id="Group_16071" data-name="Group 16071" transform="translate(0 0)" opacity="0.8">
    <g id="Group_16070" data-name="Group 16070" transform="translate(0 0)" clip-path="url(#clip-path)">
      <path id="Path_11059" data-name="Path 11059" d="M29.829,50.2a4.167,4.167,0,0,0,.941-3.119,3.952,3.952,0,0,0-1.363-2.766c-1.04-.879-2.587-1.275-4.807-1.206l-.916-2.005-.023-.674a6.9,6.9,0,0,0,4.083-2.72,4.173,4.173,0,0,0,.413-3.23,3.945,3.945,0,0,0-1.8-2.5c-1.17-.695-2.757-.825-4.942-.4L20.2,29.792l-.062-.393a6.292,6.292,0,0,0,2.536-2.7,4.448,4.448,0,0,0,.271-3.473,4.84,4.84,0,0,0-2.9-2.73,6.129,6.129,0,0,0-2.9-.342,7.213,7.213,0,0,0,3.682-2.788,4.824,4.824,0,0,0,.321-4.287,3.651,3.651,0,0,0-2.558-2.227,5.47,5.47,0,0,0-2.412.121c-.152.033-.3.065-.453.092a1.917,1.917,0,0,1-.539.029,1.029,1.029,0,0,1,.077-.27,5.988,5.988,0,0,1,.424-.741,9.948,9.948,0,0,0,.561-.974,6.523,6.523,0,0,0-2.68-8.14A8.07,8.07,0,0,0,5.2,1.4,11.083,11.083,0,0,0,.739,8.095a20.422,20.422,0,0,0-.23,7.6,21.644,21.644,0,0,0,1.516,5.537v0A56.569,56.569,0,0,0,5.66,28.159a46.911,46.911,0,0,1,3.8,7.469c2.434,6.682,4.439,16.323.167,24.3a60,60,0,0,1-3.415,5.4c-.389.571-.762,1.151-1.145,1.725-.007.007-.017.01-.023.018-.022.026-.026.059-.047.087-.322.485-.657.963-.967,1.457C2.5,71.052.423,74.777.054,78.969c-.38,4.346,1.261,8.452,4.286,10.716a1.585,1.585,0,0,0,1.9-2.537c-2.121-1.588-3.31-4.689-3.029-7.9.233-2.628,1.322-5.427,3.411-8.785l4.99,4.182-.292.407a1.585,1.585,0,0,0,.456,2.275,2.623,2.623,0,0,1,1.2,1.621,1.6,1.6,0,0,1-.11,1.162,1.687,1.687,0,0,1-1.177.626A2.582,2.582,0,0,1,9.6,80.064a1.584,1.584,0,1,0-2.126,2.35,5.774,5.774,0,0,0,3.876,1.512,5.66,5.66,0,0,0,.761-.052A4.747,4.747,0,0,0,15.54,81.8a4.723,4.723,0,0,0,.521-3.572,5.747,5.747,0,0,0-1.317-2.514l.135-.187,1.749-1.181c2.263.808,3.969.914,5.315.339a4.161,4.161,0,0,0,2.234-2.373,3.943,3.943,0,0,0,.01-3.083c-.528-1.225-1.7-2.245-3.646-3.165l.172-1.218L22.05,63.6c2.363.441,4.061.276,5.3-.5a4.168,4.168,0,0,0,1.831-2.7,3.944,3.944,0,0,0-.477-3.047c-.714-1.126-2.03-1.947-4.094-2.548l-.022-1.936.333-.6c2.383-.284,3.952-.948,4.9-2.063m-2.468-3.464a.766.766,0,0,1,.251.6,1,1,0,0,1-.194.8c-.262.307-1.076.85-3.6,1.043A1.586,1.586,0,0,0,22.559,50l-.39.7-6.883-1.251a36.48,36.48,0,0,0-.553-6.4l6.36.012,1.076,2.355a1.584,1.584,0,0,0,1.576.921c2.482-.212,3.331.163,3.616.4M21.1,34.907c2.407-.617,3.311-.391,3.633-.2.079.048.244.146.347.554a1,1,0,0,1-.058.824c-.208.346-.922,1.017-3.373,1.625a1.585,1.585,0,0,0-1.2,1.592l.021.591-6.4-.014a52.53,52.53,0,0,0-1.627-5.334c-.2-.55-.433-1.086-.667-1.619l6.154-.834,1.47,2.17a1.584,1.584,0,0,0,1.706.646M4.683,19.149l-.069-.007a17.723,17.723,0,0,1-.962-3.847,17.5,17.5,0,0,1,.163-6.435A8.059,8.059,0,0,1,6.951,4.045,4.912,4.912,0,0,1,11.959,3.7a3.35,3.35,0,0,1,1.435,4.028A6.684,6.684,0,0,1,13,8.392a8.844,8.844,0,0,0-.649,1.164,3.423,3.423,0,0,0,.309,3.564,3.65,3.65,0,0,0,3.613,1.065c.187-.033.375-.073.564-.114a3.087,3.087,0,0,1,1.056-.125c.16.036.265.212.324.356a1.621,1.621,0,0,1-.085,1.386c-.621.995-2.02,1.521-3.309,1.9A37.277,37.277,0,0,1,4.683,19.149m8.7,2.1.707,1.648a1.586,1.586,0,0,0,2.2.774,3.122,3.122,0,0,1,2.624-.218,1.806,1.806,0,0,1,1.058.867,1.426,1.426,0,0,1-.157,1.006,3.281,3.281,0,0,1-1.936,1.629,1.586,1.586,0,0,0-1.06,1.749l.052.327-6.568.889C9.686,28.78,9.039,27.659,8.4,26.559,7.544,25.1,6.722,23.7,6,22.28a40.468,40.468,0,0,0,7.382-1.027m7.895,49.233a.768.768,0,0,1-.043.652.993.993,0,0,1-.533.633c-.372.157-1.342.282-3.684-.666a1.585,1.585,0,0,0-1.481.154L13.86,72.393,8.381,67.8c.154-.226.3-.458.455-.684,1.094-1.6,2.2-3.273,3.19-5.022L17.5,64.958l-.265,1.862a1.588,1.588,0,0,0,.987,1.7c2.316.916,2.91,1.627,3.059,1.971m4.756-11.439a.763.763,0,0,1,.059.649,1,1,0,0,1-.426.711c-.343.214-1.283.491-3.741-.077a1.589,1.589,0,0,0-1.44.389l-1.525,1.429-5.53-2.9A25.025,25.025,0,0,0,15.1,52.636l6.327,1.151.026,2.27A1.585,1.585,0,0,0,22.7,57.584c2.432.539,3.131,1.148,3.332,1.463" transform="translate(0 0)" fill="#384f5d"/>
    </g>
  </g>
</svg>
