<svg xmlns="http://www.w3.org/2000/svg" xmlns:xlink="http://www.w3.org/1999/xlink" width="99.173" height="90" viewBox="0 0 99.173 90">
  <defs>
    <clipPath id="clip-path">
      <rect id="Rectangle_2694" data-name="Rectangle 2694" width="99.173" height="90" fill="#fff"/>
    </clipPath>
  </defs>
  <g id="Group_16069" data-name="Group 16069" transform="translate(0 0)" opacity="0.8">
    <g id="Group_16068" data-name="Group 16068" transform="translate(0 0)" clip-path="url(#clip-path)">
      <path id="Path_11043" data-name="Path 11043" d="M33.7,29.743a1.629,1.629,0,0,0,.824-.223,10.639,10.639,0,0,0,5.28-9.176,1.642,1.642,0,0,0-3.285,0,7.35,7.35,0,0,1-3.646,6.336,1.643,1.643,0,0,0,.827,3.064" transform="translate(13.726 8.009)" fill="#fff"/>
      <path id="Path_11044" data-name="Path 11044" d="M16.991,32.393a8.278,8.278,0,0,1-1.734-.277A8.411,8.411,0,0,1,9.44,26.582a1.642,1.642,0,1,0-3.125,1.013,11.7,11.7,0,0,0,10.5,8.079h.087a1.642,1.642,0,0,0,.086-3.282" transform="translate(2.67 10.896)" fill="#fff"/>
      <path id="Path_11045" data-name="Path 11045" d="M25.243,17.981a1.646,1.646,0,0,0,1.864.1,9.213,9.213,0,0,1,8.408-.613,1.644,1.644,0,0,0,1.29-3.024,12.759,12.759,0,0,0-2.4-.744A12.5,12.5,0,0,0,26.37,14.74a17.946,17.946,0,0,0-11.32-3.078c-.4.027-.8.069-1.2.121a1.642,1.642,0,1,0,.441,3.255c.324-.043.65-.077.978-.1a14.656,14.656,0,0,1,9.972,3.041" transform="translate(5.322 4.977)" fill="#fff"/>
      <path id="Path_11046" data-name="Path 11046" d="M31.834,32.24a10.549,10.549,0,0,0,7.508,3.111,1.642,1.642,0,1,0,0-3.285,7.281,7.281,0,0,1-5.184-2.148,1.643,1.643,0,0,0-2.324,2.322" transform="translate(13.426 12.606)" fill="#fff"/>
      <path id="Path_11047" data-name="Path 11047" d="M22.164,16.872a1.642,1.642,0,0,0-2.318.157,12.478,12.478,0,0,0-2.812,10.809,1.642,1.642,0,1,0,3.213-.68A9.214,9.214,0,0,1,22.32,19.19a1.643,1.643,0,0,0-.156-2.318" transform="translate(7.177 7.051)" fill="#fff"/>
      <path id="Path_11048" data-name="Path 11048" d="M40.629,14.509a1.644,1.644,0,0,0,2.3.327,9.085,9.085,0,0,1,5.443-1.817l.236.007a1.579,1.579,0,0,0,1.628-1.594A1.688,1.688,0,0,0,48.6,9.74l-.231-.006a12.355,12.355,0,0,0-7.415,2.475,1.644,1.644,0,0,0-.327,2.3" transform="translate(17.257 4.169)" fill="#fff"/>
      <path id="Path_11049" data-name="Path 11049" d="M44.887,19.169A7.355,7.355,0,0,1,41.241,25.5a1.643,1.643,0,1,0,1.652,2.839,10.639,10.639,0,0,0,5.28-9.175,1.643,1.643,0,0,0-3.286,0" transform="translate(17.31 7.506)" fill="#fff"/>
      <path id="Path_11050" data-name="Path 11050" d="M30.586,9.667a9.181,9.181,0,0,1,2.766-1.577,9.306,9.306,0,0,1,9.686,2.161,1.643,1.643,0,1,0,2.324-2.322,12.554,12.554,0,0,0-16.874-.791,1.643,1.643,0,0,0,2.1,2.529" transform="translate(11.945 1.822)" fill="#fff"/>
      <path id="Path_11051" data-name="Path 11051" d="M55.432,47.733a1.642,1.642,0,1,0-3.191.778l3.508,14.4a1.642,1.642,0,0,0,1.594,1.254,1.591,1.591,0,0,0,.39-.047,1.641,1.641,0,0,0,1.207-1.984Z" transform="translate(22.35 19.903)" fill="#fff"/>
      <path id="Path_11052" data-name="Path 11052" d="M65.911,36.493a1.643,1.643,0,0,0-1.642,1.642,7.334,7.334,0,0,1-7.332,7.332,1.642,1.642,0,1,0,0,3.283A10.613,10.613,0,0,0,67.553,38.135a1.643,1.643,0,0,0-1.642-1.642" transform="translate(23.677 15.627)" fill="#fff"/>
      <path id="Path_11053" data-name="Path 11053" d="M56.786,30.736a10.64,10.64,0,0,0,1.417-5.29,1.643,1.643,0,0,0-3.286,0,7.345,7.345,0,0,1-3.645,6.336,1.643,1.643,0,1,0,1.651,2.841,10.623,10.623,0,0,0,3.863-3.886" transform="translate(21.605 10.193)" fill="#fff"/>
      <path id="Path_11054" data-name="Path 11054" d="M31.74,27.428A1.644,1.644,0,0,0,30.1,25.786a9.289,9.289,0,0,0-9.292,9.089,1.642,1.642,0,0,0,1.607,1.678h.034a1.643,1.643,0,0,0,1.642-1.607A6.007,6.007,0,0,1,30.1,29.071a1.644,1.644,0,0,0,1.642-1.642" transform="translate(8.909 11.042)" fill="#fff"/>
      <path id="Path_11055" data-name="Path 11055" d="M97.338,46.2a19,19,0,0,0-2.425-4,1.586,1.586,0,0,1-.244-1.637c.093-.251.184-.507.263-.761A13.309,13.309,0,0,0,85.845,22.99,18.781,18.781,0,0,0,67.184,6.328a18.956,18.956,0,0,0-3.612.348q-.716.139-1.424.337A18.732,18.732,0,0,0,47.517,0,18.756,18.756,0,0,0,31.723,8.622q-.413-.118-.838-.211A15.536,15.536,0,0,0,13,18.013,18.956,18.956,0,0,0,4.06,24.224,18.778,18.778,0,0,0,18.781,54.662a18.894,18.894,0,0,0,4.019-.433l.21-.047a13.319,13.319,0,0,0,13.042,10.66l27.537.051a1.658,1.658,0,0,1,1.93,1.481l.01.03,6.237,21.617A2.733,2.733,0,0,0,74.433,90h.023l9.5-.087A2.714,2.714,0,0,0,86.6,87.893a1.476,1.476,0,0,0,.06-.4l.428-16.646a1.377,1.377,0,0,1,.616-1.13C98.134,64.058,101.73,55.25,97.338,46.2m-11.2,20.628A4.6,4.6,0,0,0,83.8,70.762l-.408,15.869-8.588.08-6.118-21.2a4.879,4.879,0,0,0-5.093-3.9l-27.537-.05A10.03,10.03,0,0,1,26.042,52a1.642,1.642,0,0,0-2.181-1.475,15.043,15.043,0,0,1-1.762.5,15.58,15.58,0,0,1-3.318.358A15.493,15.493,0,0,1,6.635,26.265,15.6,15.6,0,0,1,14.7,20.932a1.637,1.637,0,0,0,1.134-1.085,12.253,12.253,0,0,1,16.037-7.718,1.647,1.647,0,0,0,2.031-.747A15.6,15.6,0,0,1,39.221,5.69,15.745,15.745,0,0,1,54.989,5.2a15.626,15.626,0,0,1,5.2,4.669,1.642,1.642,0,0,0,1.884.6,15.429,15.429,0,0,1,5.107-.865A15.5,15.5,0,0,1,82.663,24.394a1.643,1.643,0,0,0,1.353,1.541A10.025,10.025,0,0,1,92.261,35.8a9.943,9.943,0,0,1-.463,3.018c-.061.2-.13.391-.2.573a4.846,4.846,0,0,0,.738,4.847,15.682,15.682,0,0,1,2.024,3.353c5.126,10.562-4.045,16.974-8.224,19.241" transform="translate(0 0.001)" fill="#fff"/>
      <path id="Path_11056" data-name="Path 11056" d="M51.975,21.441a1.637,1.637,0,0,0,.984-.328,9.05,9.05,0,0,1,5.52-1.815l.171,0h.024a1.6,1.6,0,0,0,1.585-1.6,1.7,1.7,0,0,0-1.644-1.685l-.214,0a12.357,12.357,0,0,0-7.414,2.477,1.641,1.641,0,0,0,.987,2.955" transform="translate(21.552 6.856)" fill="#fff"/>
      <path id="Path_11057" data-name="Path 11057" d="M52.762,39.641H29.395a1.642,1.642,0,1,0,0,3.285H52.762a1.642,1.642,0,0,0,0-3.285" transform="translate(11.883 16.975)" fill="#fff"/>
      <path id="Path_11058" data-name="Path 11058" d="M50.594,36.465a7.288,7.288,0,0,1-5.184-2.147,1.643,1.643,0,1,0-2.324,2.322,10.551,10.551,0,0,0,7.508,3.109,1.642,1.642,0,0,0,0-3.285" transform="translate(18.244 14.49)" fill="#fff"/>
    </g>
  </g>
</svg>
